# xmcd
#
# Track frame offsets:
#	150
#	12707
#	26715
#	39152
#	53025
#	64780
#	75647
#	87147
#	102167
#	115960
#	126472
#	138985
#	149345
#	164307
#	176240
#	187627
#	201752
#	214567
#	224970
#
# Disc length: 3132 seconds
#
# Revision: 0
# Processed by: cddbd v1.5.1PL0 Copyright (c) Steve Scherf et al.
# Submitted via: dBpowerAMP V4.0
#
DISCID=150c3a13
DTITLE=Sonny Terry and Brownie McGhee - Key To The Highway: "Sittin In With" Sessions
DYEAR=2004
DGENRE=Blues
TTITLE0=Mean Old Frisco
TTITLE1=Man Ain't Nothin' But A Fool
TTITLE2=The Woman Is Killing Me
TTITLE3=Smiling And Crying The Blues
TTITLE4=Meet You In The Morning
TTITLE5=Stranger Blues
TTITLE6=(I) Feel So Good
TTITLE7=(New) Bad Blood
TTITLE8=A Letter To Lightnin' Hopkins (Lightnin's Blues)
TTITLE9=Forgive Me
TTITLE10=(I Don't Worry) Sittin' On Top Of The World
TTITLE11=Key To The Highway
TTITLE12=Going Down Slow
TTITLE13=Pawn Shop Blues
TTITLE14=Bulldog Blues
TTITLE15=Bicycle Boogie
TTITLE16=Ease My Worried Mind
TTITLE17=I (Believe You Got A Sidekick)
TTITLE18=C.C. Rider - Where Did She Go
EXTD=
EXTT0=
EXTT1=
EXTT2=
EXTT3=
EXTT4=
EXTT5=
EXTT6=
EXTT7=
EXTT8=
EXTT9=
EXTT10=
EXTT11=
EXTT12=
EXTT13=
EXTT14=
EXTT15=
EXTT16=
EXTT17=
EXTT18=
PLAYORDER=
